<?xml version="1.0" encoding="iso-8859-1"?>
<!-- Uploaded to: SVG Repo, www.svgrepo.com, Generator: SVG Repo Mixer Tools -->
<svg version="1.1" id="Layer_1" xmlns="http://www.w3.org/2000/svg" xmlns:xlink="http://www.w3.org/1999/xlink" 
	 viewBox="0 0 507.2 507.2" xml:space="preserve">
<path style="fill:#CDEEF9;" d="M501.6,84.4c0-17.6-14-31.6-31.6-31.6H33.2c-17.6,0-31.6,14-31.6,31.6v252.8
	c0,17.6,14,31.6,31.6,31.6H470c17.6,0,31.6-14,31.6-31.6L501.6,84.4L501.6,84.4z"/>
<path style="fill:#DF5C4E;" d="M363.2,196.8c5.2,0,10.4-0.8,15.2-2.8l16.4-10.8l0,0c-7.2-7.6-12-18.4-12-30c0-8.8,2.4-16.8,7.2-23.6
	c1.6-2,3.2-4.4,4.8-6c-8-8.4-19.2-13.6-31.6-13.6c-24,0-43.6,19.6-43.6,43.6C320,177.2,339.2,196.8,363.2,196.8z"/>
<path style="fill:#F0C960;" d="M394.8,182.8c8,8.4,19.2,13.6,31.6,13.6c24,0,43.6-19.6,43.6-43.6s-19.6-43.6-43.6-43.6
	c-6,0-12,1.2-17.2,3.6l-14.4,10l0,0c7.2,7.6,12,18.4,12,30C406.8,164.8,402.4,175.2,394.8,182.8z"/>
<path style="fill:#EF934A;" d="M383.2,153.2c0,11.6,4.4,22,12,30c7.2-7.6,12-18.4,12-30s-4.4-22-12-30c-1.6,2-3.2,4-4.8,6
	C385.6,136.4,383.2,144.4,383.2,153.2z"/>
<path style="fill:#AEB1B4;" d="M153.6,140.4c0-13.2-10.8-23.6-23.6-23.6H65.6c-13.2,0-23.6,10.8-23.6,23.6v32.4
	c0,13.2,10.8,23.6,23.6,23.6H130c13.2,0,23.6-10.8,23.6-23.6V140.4z"/>
<g>
	<rect x="41.6" y="276.8" style="fill:#F4EFEF;" width="88" height="28"/>
	<rect x="373.6" y="280.8" style="fill:#F4EFEF;" width="88" height="28"/>
</g>
<path style="fill:#73BADD;" d="M256.8,232.4c-61.2,0-110.4,49.6-110.4,110.4c0,6.8,0.8,13.2,1.6,19.6c9.2,51.6,54.4,90.8,108.8,90.8
	c54.4,0,99.6-39.2,108.8-90.8c1.2-6.4,1.6-12.8,1.6-19.6C367.6,282,318,232.4,256.8,232.4z"/>
<path d="M471.6,375.6h-104c-2.4,0-4-1.6-4-4s1.6-4,4-4h104c15.2,0,27.6-12.4,27.6-27.6V85.2c0-15.2-12.4-27.6-27.6-27.6h-436
	C20.4,57.6,8,70,8,85.2V340c0,15.2,12.4,27.6,27.6,27.6h112c2.4,0,4,1.6,4,4s-1.6,4-4,4h-112C16,375.6,0,359.6,0,340V85.2
	c0-19.6,16-35.6,35.6-35.6h436c19.6,0,35.6,16,35.6,35.6V340C507.2,359.2,491.2,375.6,471.6,375.6z"/>
<path d="M363.2,200.4c-26,0-47.6-21.2-47.6-47.6c0-26,21.2-47.6,47.6-47.6s47.6,21.2,47.6,47.6c0,12-4.4,23.6-12.8,32.4
	c-1.6,1.6-4,1.6-5.6,0s-1.6-4,0-5.6c6.8-7.2,10.8-16.8,10.8-27.2c0-21.6-17.6-39.6-39.6-39.6c-21.6,0-39.6,17.6-39.6,39.6
	s17.6,39.6,39.6,39.6c4.8,0,9.6-0.8,14-2.4c2-0.8,4.4,0.4,5.2,2.4s-0.4,4.4-2.4,5.2C374.8,199.2,369.2,200.4,363.2,200.4z"/>
<path d="M426.4,200.4c-26,0-47.6-21.2-47.6-47.6c0-9.2,2.8-18.4,7.6-26c1.6-2.4,3.2-4.8,5.2-6.8c1.6-1.6,4-1.6,5.6,0s1.6,4,0,5.6
	s-3.2,3.6-4.4,5.6c-4,6.4-6.4,14-6.4,21.6c0,21.6,17.6,39.6,39.6,39.6c21.6,0,39.6-17.6,39.6-39.6S448,113.2,426,113.2
	c-5.6,0-10.8,1.2-15.6,3.2c-2,0.8-4.4,0-5.2-2s0-4.4,2-5.2c6-2.4,12.4-4,18.8-4c26,0,47.6,21.2,47.6,47.6
	C474,179.2,452.8,200.4,426.4,200.4z"/>
<path d="M128,202.8H63.6c-15.2,0-27.6-12.4-27.6-27.6v-32.4c0-15.2,12.4-27.6,27.6-27.6H128c15.2,0,27.6,12.4,27.6,27.6v32.4
	C155.6,190.4,143.2,202.8,128,202.8z M63.2,122.8c-10.8,0-19.6,8.8-19.6,19.6v32.4c0,10.8,8.8,19.6,19.6,19.6h64.4
	c10.8,0,19.6-8.8,19.6-19.6l0,0v-32.4c0-10.8-8.8-19.6-19.6-19.6H63.2z"/>
<path d="M131.6,310.8h-88c-2.4,0-4-1.6-4-4v-28c0-2.4,1.6-4,4-4h88c2.4,0,4,1.6,4,4v28C135.6,309.2,134,310.8,131.6,310.8z
	 M47.6,302.8h80v-20h-80V302.8z"/>
<path d="M463.6,310.8h-88c-2.4,0-4-1.6-4-4v-28c0-2.4,1.6-4,4-4h88c2.4,0,4,1.6,4,4v28C467.6,309.2,466,310.8,463.6,310.8z
	 M379.6,302.8h80v-20h-80V302.8z"/>
<path d="M129.6,174.8h-84c-2.4,0-4-1.6-4-4s1.6-4,4-4h84c2.4,0,4,1.6,4,4S132,174.8,129.6,174.8z"/>
<path d="M129.6,150.8h-84c-2.4,0-4-1.6-4-4s1.6-4,4-4h84c2.4,0,4,1.6,4,4S132,150.8,129.6,150.8z"/>
<path d="M256.8,457.6c-63.2,0-114.4-51.2-114.4-114.4c0-63.2,51.2-114.4,114.4-114.4S371.2,280,371.2,343.2
	C371.6,406.4,320,457.6,256.8,457.6z M256.8,236.4c-58.8,0-106.4,47.6-106.4,106.4S198,449.2,256.8,449.2s106.4-47.6,106.4-106.4
	C363.6,284.4,315.6,236.4,256.8,236.4z"/>
<path d="M255.6,400.8c-2.4,0-4-1.6-4-4v-104c0-2.4,1.6-4,4-4s4,1.6,4,4v104C259.6,399.2,258,400.8,255.6,400.8z"/>
<path d="M305.6,346.8h-104c-2.4,0-4-1.6-4-4s1.6-4,4-4h104c2.4,0,4,1.6,4,4S308,346.8,305.6,346.8z"/>
</svg>